<svg id="lock_open-black-48dp" xmlns="http://www.w3.org/2000/svg" width="16" height="16" viewBox="0 0 16 16">
  <path id="Path_6772" data-name="Path 6772" d="M16,0H0V16H16Z" fill="none"/>
  <path id="Path_6773" data-name="Path 6773" d="M9.333,11.667a1.333,1.333,0,1,1,1.333-1.333A1.337,1.337,0,0,1,9.333,11.667Zm-4-6H6V4.333a3.333,3.333,0,1,1,6.667,0H11.4a2.067,2.067,0,0,0-4.133,0V5.667h6.067A1.337,1.337,0,0,1,14.667,7v6.667A1.337,1.337,0,0,1,13.333,15h-8A1.337,1.337,0,0,1,4,13.667V7A1.337,1.337,0,0,1,5.333,5.667Zm0,8h8V7h-8Z" transform="translate(-1.333 -0.333)" fill="#d80000"/>
</svg>
