<svg xmlns="http://www.w3.org/2000/svg" width="59.309" height="33.353" viewBox="0 0 59.309 33.353">
  <g id="Group_676" data-name="Group 676" transform="translate(-89.966 -298.167)">
    <g id="Group_327" data-name="Group 327" transform="translate(89.966 298.167)">
      <path id="Path_6498" data-name="Path 6498" d="M187.253,440.787v2.367a6.764,6.764,0,0,1,1.373.944v-4.779a5.051,5.051,0,0,1-1.373,1.468Z" transform="translate(-178.231 -426.23)" fill="#526161"/>
      <path id="Path_6499" data-name="Path 6499" d="M100.73,483.708a5.973,5.973,0,0,0-2.2-1.882,5.909,5.909,0,0,0-4.915-.157v1.1a2.283,2.283,0,0,0,.84,1.762,2.953,2.953,0,0,1,3.193.192,2.983,2.983,0,1,1-4.733,2.413c0-.012,0-.024,0-.037a5.339,5.339,0,0,1-.739-.609,5.243,5.243,0,0,1-1.37-2.391,5.889,5.889,0,0,0-.84,3.036c0,4.059,5.308,10.018,5.534,10.27a.534.534,0,0,0,.795,0c.226-.252,5.534-6.211,5.534-10.27A5.9,5.9,0,0,0,100.73,483.708Z" transform="translate(-89.966 -464.236)" fill="#f7681b"/>
      <path id="Path_6500" data-name="Path 6500" d="M113.424,299.477a4.458,4.458,0,0,0-7.615,3.152v5.789a5.307,5.307,0,0,1,1.373-1.469v-4.32a3.09,3.09,0,0,1,6.179,0v5.836a3.094,3.094,0,0,1-3.09,3.09.687.687,0,0,0,0,1.373,4.468,4.468,0,0,0,4.463-4.463V302.63A4.431,4.431,0,0,0,113.424,299.477Z" transform="translate(-104.34 -298.167)" fill="#7b8e8f"/>
      <path id="Path_6501" data-name="Path 6501" d="M111.7,403.406a3.063,3.063,0,0,1-3.176-.184,3.088,3.088,0,0,1-1.345-2.548v-5.493a3.1,3.1,0,0,1,3.089-3.089.686.686,0,1,0,0-1.373,4.468,4.468,0,0,0-4.463,4.463v5.493a4.432,4.432,0,0,0,1.31,3.152,4.532,4.532,0,0,0,.712.579,4.437,4.437,0,0,0,4.567.187A2.192,2.192,0,0,0,111.7,403.406Z" transform="translate(-104.337 -382.137)" fill="#526161"/>
    </g>
    <g id="Group_328" data-name="Group 328" transform="translate(109.169 306.249)">
      <path id="Path_6502" data-name="Path 6502" d="M297.049,387.248a24.994,24.994,0,0,1,4.14-.322,6.863,6.863,0,0,1,4.685,1.388,4.492,4.492,0,0,1,1.463,3.495,4.917,4.917,0,0,1-1.289,3.569,6.922,6.922,0,0,1-5.106,1.834,7.422,7.422,0,0,1-1.735-.149v6.693h-2.156Zm2.156,8.056a7.234,7.234,0,0,0,1.785.174c2.6,0,4.189-1.264,4.189-3.569,0-2.206-1.562-3.272-3.941-3.272a9.048,9.048,0,0,0-2.033.174Z" transform="translate(-297.049 -386.777)" fill="#526161"/>
      <path id="Path_6503" data-name="Path 6503" d="M441.23,401.756a10.706,10.706,0,0,1-4.412.793c-4.71,0-8.254-2.974-8.254-8.453,0-5.23,3.545-8.775,8.725-8.775a8.955,8.955,0,0,1,3.966.744l-.521,1.76a7.854,7.854,0,0,0-3.371-.694c-3.916,0-6.519,2.5-6.519,6.891,0,4.09,2.355,6.717,6.42,6.717a8.63,8.63,0,0,0,3.52-.694Z" transform="translate(-416.369 -385.322)" fill="#526161"/>
      <path id="Path_6504" data-name="Path 6504" d="M594.292,404.969V388.262h2.355L602,396.715a47.276,47.276,0,0,1,3,5.428l.05-.025c-.2-2.231-.248-4.263-.248-6.866v-6.99h2.033v16.707h-2.181l-5.3-8.477a53.033,53.033,0,0,1-3.123-5.577l-.074.025c.124,2.107.173,4.115.173,6.891v7.139Z" transform="translate(-566.728 -387.989)" fill="#526161"/>
    </g>
  </g>
</svg>
